<svg width="146" height="41" viewBox="0 0 146 41" fill="none" xmlns="http://www.w3.org/2000/svg">
<path d="M9.45 40.5C6.71667 40.5 4.55 39.7167 2.95 38.15C1.35 36.55 0.55 34.4667 0.55 31.9C0.55 29.1333 1.53333 26.95 3.5 25.35C5.46667 23.75 8.23333 22.95 11.8 22.95H17.2V21.2C17.2 20.1667 16.8333 19.3667 16.1 18.8C15.4 18.2 14.3833 17.9 13.05 17.9C11.7833 17.9 10.7667 18.15 10 18.65C9.26667 19.15 8.86667 19.8833 8.8 20.85H1.7C1.8 18.15 2.86667 16 4.9 14.4C6.93333 12.8 9.68333 12 13.15 12C16.7833 12 19.6167 12.8333 21.65 14.5C23.6833 16.1667 24.7 18.5 24.7 21.5V40H17.45V35.25C17.1167 36.8833 16.2333 38.1667 14.8 39.1C13.4 40.0333 11.6167 40.5 9.45 40.5ZM12.1 34.5C13.6667 34.5 14.9 34.1167 15.8 33.35C16.7333 32.55 17.2 31.5167 17.2 30.25V27.45H11.95C10.6167 27.45 9.58333 27.7833 8.85 28.45C8.15 29.0833 7.8 29.9167 7.8 30.95C7.8 31.9833 8.16667 32.8333 8.9 33.5C9.66667 34.1667 10.7333 34.5 12.1 34.5ZM46.0805 40.5C44.2471 40.5 42.6805 40.0333 41.3805 39.1C40.0805 38.1333 39.1305 36.7833 38.5305 35.05V40H31.2805V3.5H38.7805V11L38.5805 17.3C39.1805 15.6 40.1138 14.3 41.3805 13.4C42.6805 12.4667 44.2471 12 46.0805 12C48.7471 12 50.8971 12.9833 52.5305 14.95C54.1638 16.8833 54.9805 19.4833 54.9805 22.75V29.75C54.9805 33.0167 54.1638 35.6333 52.5305 37.6C50.8971 39.5333 48.7471 40.5 46.0805 40.5ZM43.1805 34C44.5471 34 45.5971 33.6167 46.3305 32.85C47.0971 32.05 47.4805 30.9333 47.4805 29.5V23C47.4805 21.5333 47.0971 20.4167 46.3305 19.65C45.5971 18.8833 44.5471 18.5 43.1805 18.5C41.7471 18.5 40.6471 18.9167 39.8805 19.75C39.1471 20.55 38.7805 21.7167 38.7805 23.25V29.25C38.7805 30.7833 39.1471 31.9667 39.8805 32.8C40.6471 33.6 41.7471 34 43.1805 34ZM73.4109 40.5C70.9776 40.5 68.8443 40.05 67.0109 39.15C65.1776 38.2167 63.7609 36.9333 62.7609 35.3C61.7609 33.6333 61.2609 31.7 61.2609 29.5V23C61.2609 20.7667 61.7609 18.8333 62.7609 17.2C63.7609 15.5667 65.1776 14.3 67.0109 13.4C68.8443 12.4667 70.9776 12 73.4109 12C77.0443 12 79.9443 12.9167 82.1109 14.75C84.2776 16.5833 85.4276 19.0833 85.5609 22.25H78.2609C78.1609 21.0833 77.6609 20.1667 76.7609 19.5C75.8943 18.8333 74.7776 18.5 73.4109 18.5C71.9109 18.5 70.7609 18.8833 69.9609 19.65C69.1609 20.4167 68.7609 21.5333 68.7609 23V29.5C68.7609 30.9333 69.1609 32.05 69.9609 32.85C70.7609 33.6167 71.9109 34 73.4109 34C74.7776 34 75.8943 33.6833 76.7609 33.05C77.6609 32.3833 78.1609 31.45 78.2609 30.25H85.5609C85.4276 33.4167 84.2776 35.9167 82.1109 37.75C79.9443 39.5833 77.0443 40.5 73.4109 40.5ZM91.4414 40V33.25H100.541V19.25H92.4414V12.5H108.041V33.25H115.941V40H91.4414ZM103.941 8.15C102.575 8.15 101.475 7.8 100.641 7.1C99.8414 6.4 99.4414 5.45 99.4414 4.25C99.4414 3.05 99.8414 2.1 100.641 1.4C101.475 0.699998 102.575 0.349998 103.941 0.349998C105.308 0.349998 106.391 0.699998 107.191 1.4C108.025 2.1 108.441 3.05 108.441 4.25C108.441 5.45 108.025 6.4 107.191 7.1C106.391 7.8 105.308 8.15 103.941 8.15ZM121.172 40V33.3L135.022 19.55C136.422 18.15 137.122 16.4667 137.122 14.5C137.122 13.1333 136.705 12 135.872 11.1C135.072 10.2 134.005 9.75 132.672 9.75C131.305 9.75 130.189 10.2167 129.322 11.15C128.489 12.0833 128.072 13.2833 128.072 14.75H120.572C120.572 12.4167 121.089 10.3833 122.122 8.65C123.189 6.88333 124.639 5.5 126.472 4.5C128.339 3.5 130.489 3 132.922 3C135.289 3 137.355 3.46667 139.122 4.4C140.889 5.3 142.272 6.58333 143.272 8.25C144.272 9.88333 144.772 11.7833 144.772 13.95C144.772 15.8833 144.355 17.7667 143.522 19.6C142.689 21.4 141.339 23.1833 139.472 24.95L130.772 33.25H145.172V40H121.172Z" fill="#FFFFFC"/>
</svg>
